<svg width="101" height="33" viewBox="0 0 101 33" fill="none" xmlns="http://www.w3.org/2000/svg">
<path d="M14.0762 1.73438H17.1623L18.0441 2.17525H23.3346L24.2163 1.73438H27.3024V27.7461H14.0762V1.73438Z" fill="#B2E6D9"/>
<path d="M1.75195 5.20312H4.83809L5.71984 5.644H11.0104L11.8921 5.20312H14.9782V31.2148H1.75195V5.20312Z" fill="#5097F3"/>
<path fill-rule="evenodd" clip-rule="evenodd" d="M12.3013 2.63594C12.3013 1.18015 13.4814 0 14.9372 0H26.3597C27.8155 0 28.9956 1.18015 28.9956 2.63595V26.7988C28.9956 28.2546 27.8155 29.4347 26.3597 29.4347H16.6945V27.6774H25.481C26.4516 27.6774 27.2383 26.8907 27.2383 25.9201V3.51459C27.2383 2.54407 26.4516 1.7573 25.481 1.7573H24.5779C24.3051 1.7573 24.036 1.82081 23.792 1.94282L23.6554 2.0111C23.4114 2.1331 23.1424 2.19662 22.8696 2.19662H18.2077C17.9349 2.19662 17.6658 2.1331 17.4218 2.0111L17.2852 1.94282C17.0412 1.82081 16.7722 1.7573 16.4994 1.7573H15.8159C14.8454 1.7573 14.0586 2.54406 14.0586 3.51459C15.5144 3.51459 16.6943 4.69475 16.6943 6.15054V30.3134C16.6943 31.7692 15.5142 32.9493 14.0584 32.9493H2.63595C1.18015 32.9493 0 31.7692 0 30.3134V6.15054C0 4.69475 1.18015 3.51459 2.63595 3.51459H12.3013V2.63594ZM19.7696 15.8156H16.6945V13.1797H19.7696V11.0975C19.7696 10.7161 20.2222 10.5159 20.5044 10.7724L24.2446 14.1726C24.4363 14.3469 24.4363 14.6484 24.2446 14.8227L20.5044 18.2229C20.2222 18.4794 19.7696 18.2792 19.7696 17.8978V15.8156ZM3.51459 5.27189C2.54407 5.27189 1.7573 6.05866 1.7573 7.02919V29.4347C1.7573 30.4053 2.54407 31.192 3.51459 31.192H13.1797C14.1503 31.192 14.937 30.4053 14.937 29.4347V19.7696H12.0456C11.5242 21.0576 10.2615 21.9662 8.7865 21.9662C6.84544 21.9662 5.2719 20.3926 5.2719 18.4516C5.2719 16.5105 6.84544 14.937 8.7865 14.937C10.2615 14.937 11.5242 15.8456 12.0456 17.1336H14.937V7.02919C14.937 6.05866 14.1503 5.27189 13.1797 5.27189H12.2766C12.0038 5.27189 11.7347 5.33541 11.4907 5.45741L11.3542 5.52569C11.1101 5.6477 10.8411 5.71122 10.5683 5.71122H6.12606C5.85325 5.71122 5.58418 5.6477 5.34017 5.52569L5.20361 5.45741C4.9596 5.33541 4.69054 5.27189 4.41773 5.27189H3.51459Z" fill="#161618"/>
<path d="M32.1934 19.7901L34.8961 9.50781H38.2746L40.9774 19.7901H38.9797L38.4215 17.528H34.7492L34.1911 19.7901H32.1934ZM35.2046 15.7359H37.9661L36.7176 10.727H36.4532L35.2046 15.7359Z" fill="black"/>
<path d="M42.2669 22.7279V12.5044H44.0883V13.3857H44.3527C44.5192 13.1017 44.7787 12.852 45.1312 12.6366C45.4838 12.4113 45.9881 12.2987 46.6442 12.2987C47.2318 12.2987 47.7752 12.4456 48.2747 12.7394C48.7741 13.0234 49.1756 13.4445 49.4792 14.0026C49.7827 14.5608 49.9345 15.2365 49.9345 16.0297V16.2647C49.9345 17.0579 49.7827 17.7336 49.4792 18.2918C49.1756 18.85 48.7741 19.276 48.2747 19.5698C47.7752 19.8537 47.2318 19.9957 46.6442 19.9957C46.2035 19.9957 45.8314 19.9419 45.5278 19.8342C45.2341 19.7362 44.9941 19.6089 44.8081 19.4522C44.6318 19.2858 44.4898 19.1193 44.3821 18.9528H44.1177V22.7279H42.2669ZM46.086 18.3799C46.6638 18.3799 47.1387 18.1988 47.5108 17.8365C47.8928 17.4643 48.0837 16.9257 48.0837 16.2207V16.0738C48.0837 15.3687 47.8928 14.835 47.5108 14.4727C47.1289 14.1006 46.654 13.9145 46.086 13.9145C45.518 13.9145 45.0431 14.1006 44.6612 14.4727C44.2793 14.835 44.0883 15.3687 44.0883 16.0738V16.2207C44.0883 16.9257 44.2793 17.4643 44.6612 17.8365C45.0431 18.1988 45.518 18.3799 46.086 18.3799Z" fill="black"/>
<path d="M51.634 22.7279V12.5044H53.4554V13.3857H53.7198C53.8863 13.1017 54.1458 12.852 54.4983 12.6366C54.8508 12.4113 55.3552 12.2987 56.0113 12.2987C56.5988 12.2987 57.1423 12.4456 57.6418 12.7394C58.1412 13.0234 58.5427 13.4445 58.8462 14.0026C59.1498 14.5608 59.3016 15.2365 59.3016 16.0297V16.2647C59.3016 17.0579 59.1498 17.7336 58.8462 18.2918C58.5427 18.85 58.1412 19.276 57.6418 19.5698C57.1423 19.8537 56.5988 19.9957 56.0113 19.9957C55.5706 19.9957 55.1985 19.9419 54.8949 19.8342C54.6011 19.7362 54.3612 19.6089 54.1752 19.4522C53.9989 19.2858 53.8569 19.1193 53.7492 18.9528H53.4848V22.7279H51.634ZM55.4531 18.3799C56.0309 18.3799 56.5058 18.1988 56.8779 17.8365C57.2598 17.4643 57.4508 16.9257 57.4508 16.2207V16.0738C57.4508 15.3687 57.2598 14.835 56.8779 14.4727C56.496 14.1006 56.0211 13.9145 55.4531 13.9145C54.8851 13.9145 54.4102 14.1006 54.0283 14.4727C53.6464 14.835 53.4554 15.3687 53.4554 16.0738V16.2207C53.4554 16.9257 53.6464 17.4643 54.0283 17.8365C54.4102 18.1988 54.8851 18.3799 55.4531 18.3799Z" fill="black"/>
<path d="M60.9423 19.7901V9.50781H64.5411L66.3184 18.4681H66.5828L68.3602 9.50781H71.959V19.7901H70.0788V10.9326H69.8144L68.0517 19.7901H64.8496L63.0869 10.9326H62.8225V19.7901H60.9423Z" fill="black"/>
<path d="M76.2164 19.9957C75.6974 19.9957 75.2322 19.9076 74.8209 19.7313C74.4097 19.5453 74.0816 19.2809 73.8368 18.9381C73.6018 18.5856 73.4842 18.1596 73.4842 17.6602C73.4842 17.1608 73.6018 16.7446 73.8368 16.4116C74.0816 16.0689 74.4146 15.8143 74.8356 15.6478C75.2665 15.4715 75.7561 15.3834 76.3045 15.3834H78.3022V14.9721C78.3022 14.6294 78.1945 14.3503 77.9791 14.1348C77.7636 13.9096 77.4209 13.797 76.9508 13.797C76.4906 13.797 76.1478 13.9047 75.9226 14.1201C75.6974 14.3258 75.5505 14.5951 75.4819 14.928L73.778 14.3552C73.8955 13.9831 74.0816 13.6452 74.3362 13.3416C74.6006 13.0283 74.9482 12.7786 75.3791 12.5925C75.8198 12.3966 76.3535 12.2987 76.9802 12.2987C77.9399 12.2987 78.6988 12.5386 79.257 13.0185C79.8152 13.4983 80.0943 14.1936 80.0943 15.1043V17.8218C80.0943 18.1155 80.2314 18.2624 80.5056 18.2624H81.0931V19.7901H79.8593C79.4969 19.7901 79.1983 19.702 78.9632 19.5257C78.7282 19.3494 78.6107 19.1144 78.6107 18.8206V18.8059H78.3316C78.2924 18.9234 78.2043 19.0801 78.0672 19.276C77.9301 19.462 77.7147 19.6285 77.4209 19.7754C77.1271 19.9223 76.7256 19.9957 76.2164 19.9957ZM76.5396 18.4975C77.0586 18.4975 77.4796 18.3555 77.8028 18.0715C78.1358 17.7777 78.3022 17.3909 78.3022 16.911V16.7642H76.4367C76.094 16.7642 75.8247 16.8376 75.6288 16.9845C75.433 17.1314 75.3351 17.337 75.3351 17.6014C75.3351 17.8658 75.4379 18.0813 75.6435 18.2477C75.8492 18.4142 76.1478 18.4975 76.5396 18.4975Z" fill="black"/>
<path d="M82.4463 22.7279V12.5044H84.2678V13.3857H84.5322C84.6987 13.1017 84.9582 12.852 85.3107 12.6366C85.6632 12.4113 86.1676 12.2987 86.8237 12.2987C87.4112 12.2987 87.9547 12.4456 88.4541 12.7394C88.9536 13.0234 89.3551 13.4445 89.6586 14.0026C89.9622 14.5608 90.114 15.2365 90.114 16.0297V16.2647C90.114 17.0579 89.9622 17.7336 89.6586 18.2918C89.3551 18.85 88.9536 19.276 88.4541 19.5698C87.9547 19.8537 87.4112 19.9957 86.8237 19.9957C86.383 19.9957 86.0109 19.9419 85.7073 19.8342C85.4135 19.7362 85.1736 19.6089 84.9875 19.4522C84.8113 19.2858 84.6693 19.1193 84.5616 18.9528H84.2972V22.7279H82.4463ZM86.2655 18.3799C86.8433 18.3799 87.3182 18.1988 87.6903 17.8365C88.0722 17.4643 88.2632 16.9257 88.2632 16.2207V16.0738C88.2632 15.3687 88.0722 14.835 87.6903 14.4727C87.3084 14.1006 86.8335 13.9145 86.2655 13.9145C85.6975 13.9145 85.2226 14.1006 84.8407 14.4727C84.4587 14.835 84.2678 15.3687 84.2678 16.0738V16.2207C84.2678 16.9257 84.4587 17.4643 84.8407 17.8365C85.2226 18.1988 85.6975 18.3799 86.2655 18.3799Z" fill="black"/>
<path d="M91.8134 22.7279V12.5044H93.6349V13.3857H93.8993C94.0657 13.1017 94.3252 12.852 94.6778 12.6366C95.0303 12.4113 95.5346 12.2987 96.1907 12.2987C96.7783 12.2987 97.3218 12.4456 97.8212 12.7394C98.3206 13.0234 98.7221 13.4445 99.0257 14.0026C99.3293 14.5608 99.4811 15.2365 99.4811 16.0297V16.2647C99.4811 17.0579 99.3293 17.7336 99.0257 18.2918C98.7221 18.85 98.3206 19.276 97.8212 19.5698C97.3218 19.8537 96.7783 19.9957 96.1907 19.9957C95.7501 19.9957 95.3779 19.9419 95.0744 19.8342C94.7806 19.7362 94.5407 19.6089 94.3546 19.4522C94.1784 19.2858 94.0364 19.1193 93.9286 18.9528H93.6642V22.7279H91.8134ZM95.6326 18.3799C96.2103 18.3799 96.6853 18.1988 97.0574 17.8365C97.4393 17.4643 97.6303 16.9257 97.6303 16.2207V16.0738C97.6303 15.3687 97.4393 14.835 97.0574 14.4727C96.6755 14.1006 96.2005 13.9145 95.6326 13.9145C95.0646 13.9145 94.5896 14.1006 94.2077 14.4727C93.8258 14.835 93.6349 15.3687 93.6349 16.0738V16.2207C93.6349 16.9257 93.8258 17.4643 94.2077 17.8365C94.5896 18.1988 95.0646 18.3799 95.6326 18.3799Z" fill="black"/>
</svg>
